# xmcd
#
# Track frame offsets: 
#        150
#        50125
#        103945
#        136873
#        180749
#        242170
#        304583
#
# Disc length: 4449 seconds
#
# Revision: 0
# Processed by: cddbd v1.5.2PL0 Copyright (c) Steve Scherf et al.
# Submitted via: ExactAudioCopyFreeDBPlugin 1.0
#
DISCID=5f115f07
DTITLE=子安·櫻井·若本·千葉進·石森 - 豪華客船で恋は始まる DRAMA CD 2
DYEAR=2007
DGENRE=Other
TTITLE0=Chapter1 再び船上に…
TTITLE1=Chapter2 舞踏会への誘い
TTITLE2=Chapter3 爆発!?
TTITLE3=Chapter4 シージャック発生
TTITLE4=Chapter5 ブリッジ奪還計画
TTITLE5=Chapter6 確かめさせて…
TTITLE6=Chapter7 TALK
EXTD=
EXTT0=
EXTT1=
EXTT2=
EXTT3=
EXTT4=
EXTT5=
EXTT6=
PLAYORDER=
